<svg xmlns="http://www.w3.org/2000/svg" width="860" height="200" viewBox="0 0 860 200" role="img" aria-labelledby="title desc">
    <title id="title">Constellation contribution animation</title>
    <desc id="desc">active days form a generated constellation for WendellOttoni with 1587 contributions.</desc>
    <style>text{font-family:ui-monospace,SFMono-Regular,Menlo,Monaco,Consolas,monospace}.mono{font-family:ui-monospace,SFMono-Regular,Menlo,Monaco,Consolas,monospace}</style>
    
    <rect width="100%" height="100%" fill="#020617"/>
    <text x="20" y="20" fill="#dbeafe" font-size="13" font-weight="700" letter-spacing="3">CONSTELLATION</text>
    <text x="20" y="36" fill="#dbeafe" opacity=".7" font-size="9">Constellation - 1587 contributions</text>
    <path d="M35 42L35 60" stroke="#60a5fa" stroke-opacity=".24" stroke-width="1"/><path d="M35 60L35 78" stroke="#60a5fa" stroke-opacity=".24" stroke-width="1"/><path d="M35 78L35 96" stroke="#60a5fa" stroke-opacity=".24" stroke-width="1"/><path d="M35 96L35 114" stroke="#60a5fa" stroke-opacity=".24" stroke-width="1"/><path d="M35 114L35 132" stroke="#60a5fa" stroke-opacity=".24" stroke-width="1"/><path d="M35 132L35 150" stroke="#60a5fa" stroke-opacity=".24" stroke-width="1"/><path d="M35 150L50 43" stroke="#60a5fa" stroke-opacity=".24" stroke-width="1"/><path d="M50 43L50 61" stroke="#60a5fa" stroke-opacity=".24" stroke-width="1"/><path d="M50 61L50 79" stroke="#60a5fa" stroke-opacity=".24" stroke-width="1"/><path d="M50 79L50 97" stroke="#60a5fa" stroke-opacity=".24" stroke-width="1"/><path d="M50 97L50 115" stroke="#60a5fa" stroke-opacity=".24" stroke-width="1"/><path d="M50 115L50 133" stroke="#60a5fa" stroke-opacity=".24" stroke-width="1"/><path d="M50 133L50 151" stroke="#60a5fa" stroke-opacity=".24" stroke-width="1"/><path d="M50 151L65 44" stroke="#60a5fa" stroke-opacity=".24" stroke-width="1"/><path d="M65 44L65 62" stroke="#60a5fa" stroke-opacity=".24" stroke-width="1"/><path d="M65 62L65 80" stroke="#60a5fa" stroke-opacity=".24" stroke-width="1"/><path d="M65 80L65 98" stroke="#60a5fa" stroke-opacity=".24" stroke-width="1"/><path d="M65 98L65 116" stroke="#60a5fa" stroke-opacity=".24" stroke-width="1"/><path d="M65 116L65 134" stroke="#60a5fa" stroke-opacity=".24" stroke-width="1"/><path d="M65 134L65 152" stroke="#60a5fa" stroke-opacity=".24" stroke-width="1"/><path d="M65 152L80 45" stroke="#60a5fa" stroke-opacity=".24" stroke-width="1"/><path d="M80 45L80 63" stroke="#60a5fa" stroke-opacity=".24" stroke-width="1"/><path d="M80 63L80 81" stroke="#60a5fa" stroke-opacity=".24" stroke-width="1"/><path d="M80 81L80 99" stroke="#60a5fa" stroke-opacity=".24" stroke-width="1"/><path d="M80 99L80 117" stroke="#60a5fa" stroke-opacity=".24" stroke-width="1"/><path d="M80 117L80 135" stroke="#60a5fa" stroke-opacity=".24" stroke-width="1"/><path d="M80 135L80 153" stroke="#60a5fa" stroke-opacity=".24" stroke-width="1"/><path d="M80 153L95 46" stroke="#60a5fa" stroke-opacity=".24" stroke-width="1"/><path d="M95 46L95 64" stroke="#60a5fa" stroke-opacity=".24" stroke-width="1"/><path d="M95 64L95 82" stroke="#60a5fa" stroke-opacity=".24" stroke-width="1"/><path d="M95 82L95 100" stroke="#60a5fa" stroke-opacity=".24" stroke-width="1"/><path d="M95 100L95 118" stroke="#60a5fa" stroke-opacity=".24" stroke-width="1"/><path d="M95 118L95 136" stroke="#60a5fa" stroke-opacity=".24" stroke-width="1"/><path d="M95 136L95 154" stroke="#60a5fa" stroke-opacity=".24" stroke-width="1"/><path d="M95 154L110 47" stroke="#60a5fa" stroke-opacity=".24" stroke-width="1"/><path d="M110 47L110 65" stroke="#60a5fa" stroke-opacity=".24" stroke-width="1"/><path d="M110 65L110 83" stroke="#60a5fa" stroke-opacity=".24" stroke-width="1"/><path d="M110 83L110 101" stroke="#60a5fa" stroke-opacity=".24" stroke-width="1"/><path d="M110 101L110 119" stroke="#60a5fa" stroke-opacity=".24" stroke-width="1"/><path d="M110 119L110 137" stroke="#60a5fa" stroke-opacity=".24" stroke-width="1"/><path d="M110 137L110 155" stroke="#60a5fa" stroke-opacity=".24" stroke-width="1"/><path d="M110 155L125 42" stroke="#60a5fa" stroke-opacity=".24" stroke-width="1"/><path d="M125 42L125 60" stroke="#60a5fa" stroke-opacity=".24" stroke-width="1"/><path d="M125 60L125 78" stroke="#60a5fa" stroke-opacity=".24" stroke-width="1"/><path d="M125 78L125 96" stroke="#60a5fa" stroke-opacity=".24" stroke-width="1"/><path d="M125 96L125 114" stroke="#60a5fa" stroke-opacity=".24" stroke-width="1"/><path d="M125 114L125 132" stroke="#60a5fa" stroke-opacity=".24" stroke-width="1"/><path d="M125 132L125 150" stroke="#60a5fa" stroke-opacity=".24" stroke-width="1"/><path d="M125 150L140 43" stroke="#60a5fa" stroke-opacity=".24" stroke-width="1"/><path d="M140 43L140 61" stroke="#60a5fa" stroke-opacity=".24" stroke-width="1"/><path d="M140 61L140 79" stroke="#60a5fa" stroke-opacity=".24" stroke-width="1"/><path d="M140 79L140 97" stroke="#60a5fa" stroke-opacity=".24" stroke-width="1"/><path d="M140 97L140 115" stroke="#60a5fa" stroke-opacity=".24" stroke-width="1"/><path d="M140 115L140 133" stroke="#60a5fa" stroke-opacity=".24" stroke-width="1"/><path d="M140 133L140 151" stroke="#60a5fa" stroke-opacity=".24" stroke-width="1"/><path d="M140 151L155 44" stroke="#60a5fa" stroke-opacity=".24" stroke-width="1"/><path d="M155 44L155 62" stroke="#60a5fa" stroke-opacity=".24" stroke-width="1"/><path d="M155 62L155 80" stroke="#60a5fa" stroke-opacity=".24" stroke-width="1"/><path d="M155 80L155 98" stroke="#60a5fa" stroke-opacity=".24" stroke-width="1"/><path d="M155 98L155 116" stroke="#60a5fa" stroke-opacity=".24" stroke-width="1"/><path d="M155 116L155 134" stroke="#60a5fa" stroke-opacity=".24" stroke-width="1"/><path d="M155 134L155 152" stroke="#60a5fa" stroke-opacity=".24" stroke-width="1"/><path d="M155 152L170 45" stroke="#60a5fa" stroke-opacity=".24" stroke-width="1"/><path d="M170 45L170 63" stroke="#60a5fa" stroke-opacity=".24" stroke-width="1"/><path d="M170 63L170 81" stroke="#60a5fa" stroke-opacity=".24" stroke-width="1"/><path d="M170 81L170 99" stroke="#60a5fa" stroke-opacity=".24" stroke-width="1"/><path d="M170 99L170 117" stroke="#60a5fa" stroke-opacity=".24" stroke-width="1"/><path d="M170 117L170 135" stroke="#60a5fa" stroke-opacity=".24" stroke-width="1"/><path d="M170 135L170 153" stroke="#60a5fa" stroke-opacity=".24" stroke-width="1"/><path d="M170 153L185 46" stroke="#60a5fa" stroke-opacity=".24" stroke-width="1"/><path d="M185 46L185 64" stroke="#60a5fa" stroke-opacity=".24" stroke-width="1"/><path d="M185 64L185 82" stroke="#60a5fa" stroke-opacity=".24" stroke-width="1"/><path d="M185 82L185 100" stroke="#60a5fa" stroke-opacity=".24" stroke-width="1"/><path d="M185 100L185 118" stroke="#60a5fa" stroke-opacity=".24" stroke-width="1"/><path d="M185 118L185 136" stroke="#60a5fa" stroke-opacity=".24" stroke-width="1"/><path d="M185 136L185 154" stroke="#60a5fa" stroke-opacity=".24" stroke-width="1"/><path d="M185 154L200 47" stroke="#60a5fa" stroke-opacity=".24" stroke-width="1"/><path d="M200 47L200 65" stroke="#60a5fa" stroke-opacity=".24" stroke-width="1"/><path d="M200 65L200 83" stroke="#60a5fa" stroke-opacity=".24" stroke-width="1"/><path d="M200 83L200 101" stroke="#60a5fa" stroke-opacity=".24" stroke-width="1"/><path d="M200 101L200 119" stroke="#60a5fa" stroke-opacity=".24" stroke-width="1"/><path d="M200 119L200 137" stroke="#60a5fa" stroke-opacity=".24" stroke-width="1"/><path d="M200 137L200 155" stroke="#60a5fa" stroke-opacity=".24" stroke-width="1"/><path d="M200 155L215 42" stroke="#60a5fa" stroke-opacity=".24" stroke-width="1"/><path d="M215 42L215 60" stroke="#60a5fa" stroke-opacity=".24" stroke-width="1"/><path d="M215 60L215 78" stroke="#60a5fa" stroke-opacity=".24" stroke-width="1"/><path d="M215 78L215 96" stroke="#60a5fa" stroke-opacity=".24" stroke-width="1"/><path d="M215 96L215 114" stroke="#60a5fa" stroke-opacity=".24" stroke-width="1"/><path d="M215 114L215 132" stroke="#60a5fa" stroke-opacity=".24" stroke-width="1"/><path d="M215 132L215 150" stroke="#60a5fa" stroke-opacity=".24" stroke-width="1"/><path d="M215 150L230 43" stroke="#60a5fa" stroke-opacity=".24" stroke-width="1"/><path d="M230 43L230 61" stroke="#60a5fa" stroke-opacity=".24" stroke-width="1"/><path d="M230 61L230 79" stroke="#60a5fa" stroke-opacity=".24" stroke-width="1"/><path d="M230 79L230 97" stroke="#60a5fa" stroke-opacity=".24" stroke-width="1"/><path d="M230 97L230 115" stroke="#60a5fa" stroke-opacity=".24" stroke-width="1"/><path d="M230 115L230 133" stroke="#60a5fa" stroke-opacity=".24" stroke-width="1"/><path d="M230 133L230 151" stroke="#60a5fa" stroke-opacity=".24" stroke-width="1"/><path d="M230 151L245 44" stroke="#60a5fa" stroke-opacity=".24" stroke-width="1"/><path d="M245 44L245 62" stroke="#60a5fa" stroke-opacity=".24" stroke-width="1"/><path d="M245 62L245 80" stroke="#60a5fa" stroke-opacity=".24" stroke-width="1"/><path d="M245 80L245 98" stroke="#60a5fa" stroke-opacity=".24" stroke-width="1"/><path d="M245 98L245 116" stroke="#60a5fa" stroke-opacity=".24" stroke-width="1"/><path d="M245 116L245 134" stroke="#60a5fa" stroke-opacity=".24" stroke-width="1"/><path d="M245 134L245 152" stroke="#60a5fa" stroke-opacity=".24" stroke-width="1"/><path d="M245 152L275 46" stroke="#60a5fa" stroke-opacity=".24" stroke-width="1"/><path d="M275 46L275 64" stroke="#60a5fa" stroke-opacity=".24" stroke-width="1"/><path d="M275 64L275 82" stroke="#60a5fa" stroke-opacity=".24" stroke-width="1"/><path d="M275 82L275 100" stroke="#60a5fa" stroke-opacity=".24" stroke-width="1"/><path d="M275 100L275 118" stroke="#60a5fa" stroke-opacity=".24" stroke-width="1"/><path d="M275 118L275 136" stroke="#60a5fa" stroke-opacity=".24" stroke-width="1"/><path d="M275 136L275 154" stroke="#60a5fa" stroke-opacity=".24" stroke-width="1"/><path d="M275 154L290 47" stroke="#60a5fa" stroke-opacity=".24" stroke-width="1"/><path d="M290 47L290 65" stroke="#60a5fa" stroke-opacity=".24" stroke-width="1"/><path d="M290 65L290 83" stroke="#60a5fa" stroke-opacity=".24" stroke-width="1"/><path d="M290 83L290 101" stroke="#60a5fa" stroke-opacity=".24" stroke-width="1"/><path d="M290 101L290 119" stroke="#60a5fa" stroke-opacity=".24" stroke-width="1"/><path d="M290 119L290 137" stroke="#60a5fa" stroke-opacity=".24" stroke-width="1"/><path d="M290 137L290 155" stroke="#60a5fa" stroke-opacity=".24" stroke-width="1"/><path d="M290 155L305 42" stroke="#60a5fa" stroke-opacity=".24" stroke-width="1"/><circle cx="35" cy="42" r="3.4" fill="#dbeafe">
    <animate attributeName="opacity" values=".35;1;.35" dur="2s" repeatCount="indefinite"/>
  </circle><circle cx="35" cy="60" r="2.4" fill="#dbeafe">
    <animate attributeName="opacity" values=".35;1;.35" dur="2.2s" repeatCount="indefinite"/>
  </circle><circle cx="35" cy="78" r="4.4" fill="#dbeafe">
    <animate attributeName="opacity" values=".35;1;.35" dur="2.4s" repeatCount="indefinite"/>
  </circle><circle cx="35" cy="96" r="5.4" fill="#dbeafe">
    <animate attributeName="opacity" values=".35;1;.35" dur="2.6s" repeatCount="indefinite"/>
  </circle><circle cx="35" cy="114" r="5.4" fill="#dbeafe">
    <animate attributeName="opacity" values=".35;1;.35" dur="2.8s" repeatCount="indefinite"/>
  </circle><circle cx="35" cy="132" r="5.4" fill="#dbeafe">
    <animate attributeName="opacity" values=".35;1;.35" dur="3s" repeatCount="indefinite"/>
  </circle><circle cx="35" cy="150" r="5.4" fill="#dbeafe">
    <animate attributeName="opacity" values=".35;1;.35" dur="3.2s" repeatCount="indefinite"/>
  </circle><circle cx="50" cy="43" r="2.4" fill="#dbeafe">
    <animate attributeName="opacity" values=".35;1;.35" dur="3.4s" repeatCount="indefinite"/>
  </circle><circle cx="50" cy="61" r="3.4" fill="#dbeafe">
    <animate attributeName="opacity" values=".35;1;.35" dur="3.6s" repeatCount="indefinite"/>
  </circle><circle cx="50" cy="79" r="2.4" fill="#dbeafe">
    <animate attributeName="opacity" values=".35;1;.35" dur="2s" repeatCount="indefinite"/>
  </circle><circle cx="50" cy="97" r="2.4" fill="#dbeafe">
    <animate attributeName="opacity" values=".35;1;.35" dur="2.2s" repeatCount="indefinite"/>
  </circle><circle cx="50" cy="115" r="3.4" fill="#dbeafe">
    <animate attributeName="opacity" values=".35;1;.35" dur="2.4s" repeatCount="indefinite"/>
  </circle><circle cx="50" cy="133" r="2.4" fill="#dbeafe">
    <animate attributeName="opacity" values=".35;1;.35" dur="2.6s" repeatCount="indefinite"/>
  </circle><circle cx="50" cy="151" r="2.4" fill="#dbeafe">
    <animate attributeName="opacity" values=".35;1;.35" dur="2.8s" repeatCount="indefinite"/>
  </circle><circle cx="65" cy="44" r="3.4" fill="#dbeafe">
    <animate attributeName="opacity" values=".35;1;.35" dur="3s" repeatCount="indefinite"/>
  </circle><circle cx="65" cy="62" r="2.4" fill="#dbeafe">
    <animate attributeName="opacity" values=".35;1;.35" dur="3.2s" repeatCount="indefinite"/>
  </circle><circle cx="65" cy="80" r="3.4" fill="#dbeafe">
    <animate attributeName="opacity" values=".35;1;.35" dur="3.4s" repeatCount="indefinite"/>
  </circle><circle cx="65" cy="98" r="2.4" fill="#dbeafe">
    <animate attributeName="opacity" values=".35;1;.35" dur="3.6s" repeatCount="indefinite"/>
  </circle><circle cx="65" cy="116" r="3.4" fill="#dbeafe">
    <animate attributeName="opacity" values=".35;1;.35" dur="2s" repeatCount="indefinite"/>
  </circle><circle cx="65" cy="134" r="2.4" fill="#dbeafe">
    <animate attributeName="opacity" values=".35;1;.35" dur="2.2s" repeatCount="indefinite"/>
  </circle><circle cx="65" cy="152" r="2.4" fill="#dbeafe">
    <animate attributeName="opacity" values=".35;1;.35" dur="2.4s" repeatCount="indefinite"/>
  </circle><circle cx="80" cy="45" r="2.4" fill="#dbeafe">
    <animate attributeName="opacity" values=".35;1;.35" dur="2.6s" repeatCount="indefinite"/>
  </circle><circle cx="80" cy="63" r="3.4" fill="#dbeafe">
    <animate attributeName="opacity" values=".35;1;.35" dur="2.8s" repeatCount="indefinite"/>
  </circle><circle cx="80" cy="81" r="2.4" fill="#dbeafe">
    <animate attributeName="opacity" values=".35;1;.35" dur="3s" repeatCount="indefinite"/>
  </circle><circle cx="80" cy="99" r="3.4" fill="#dbeafe">
    <animate attributeName="opacity" values=".35;1;.35" dur="3.2s" repeatCount="indefinite"/>
  </circle><circle cx="80" cy="117" r="2.4" fill="#dbeafe">
    <animate attributeName="opacity" values=".35;1;.35" dur="3.4s" repeatCount="indefinite"/>
  </circle><circle cx="80" cy="135" r="3.4" fill="#dbeafe">
    <animate attributeName="opacity" values=".35;1;.35" dur="3.6s" repeatCount="indefinite"/>
  </circle><circle cx="80" cy="153" r="3.4" fill="#dbeafe">
    <animate attributeName="opacity" values=".35;1;.35" dur="2s" repeatCount="indefinite"/>
  </circle><circle cx="95" cy="46" r="4.4" fill="#dbeafe">
    <animate attributeName="opacity" values=".35;1;.35" dur="2.2s" repeatCount="indefinite"/>
  </circle><circle cx="95" cy="64" r="4.4" fill="#dbeafe">
    <animate attributeName="opacity" values=".35;1;.35" dur="2.4s" repeatCount="indefinite"/>
  </circle><circle cx="95" cy="82" r="4.4" fill="#dbeafe">
    <animate attributeName="opacity" values=".35;1;.35" dur="2.6s" repeatCount="indefinite"/>
  </circle><circle cx="95" cy="100" r="5.4" fill="#dbeafe">
    <animate attributeName="opacity" values=".35;1;.35" dur="2.8s" repeatCount="indefinite"/>
  </circle><circle cx="95" cy="118" r="5.4" fill="#dbeafe">
    <animate attributeName="opacity" values=".35;1;.35" dur="3s" repeatCount="indefinite"/>
  </circle><circle cx="95" cy="136" r="3.4" fill="#dbeafe">
    <animate attributeName="opacity" values=".35;1;.35" dur="3.2s" repeatCount="indefinite"/>
  </circle><circle cx="95" cy="154" r="3.4" fill="#dbeafe">
    <animate attributeName="opacity" values=".35;1;.35" dur="3.4s" repeatCount="indefinite"/>
  </circle><circle cx="110" cy="47" r="3.4" fill="#dbeafe">
    <animate attributeName="opacity" values=".35;1;.35" dur="3.6s" repeatCount="indefinite"/>
  </circle><circle cx="110" cy="65" r="3.4" fill="#dbeafe">
    <animate attributeName="opacity" values=".35;1;.35" dur="2s" repeatCount="indefinite"/>
  </circle><circle cx="110" cy="83" r="2.4" fill="#dbeafe">
    <animate attributeName="opacity" values=".35;1;.35" dur="2.2s" repeatCount="indefinite"/>
  </circle><circle cx="110" cy="101" r="2.4" fill="#dbeafe">
    <animate attributeName="opacity" values=".35;1;.35" dur="2.4s" repeatCount="indefinite"/>
  </circle><circle cx="110" cy="119" r="2.4" fill="#dbeafe">
    <animate attributeName="opacity" values=".35;1;.35" dur="2.6s" repeatCount="indefinite"/>
  </circle><circle cx="110" cy="137" r="3.4" fill="#dbeafe">
    <animate attributeName="opacity" values=".35;1;.35" dur="2.8s" repeatCount="indefinite"/>
  </circle><circle cx="110" cy="155" r="3.4" fill="#dbeafe">
    <animate attributeName="opacity" values=".35;1;.35" dur="3s" repeatCount="indefinite"/>
  </circle><circle cx="125" cy="42" r="2.4" fill="#dbeafe">
    <animate attributeName="opacity" values=".35;1;.35" dur="3.2s" repeatCount="indefinite"/>
  </circle><circle cx="125" cy="60" r="2.4" fill="#dbeafe">
    <animate attributeName="opacity" values=".35;1;.35" dur="3.4s" repeatCount="indefinite"/>
  </circle><circle cx="125" cy="78" r="3.4" fill="#dbeafe">
    <animate attributeName="opacity" values=".35;1;.35" dur="3.6s" repeatCount="indefinite"/>
  </circle><circle cx="125" cy="96" r="3.4" fill="#dbeafe">
    <animate attributeName="opacity" values=".35;1;.35" dur="2s" repeatCount="indefinite"/>
  </circle><circle cx="125" cy="114" r="3.4" fill="#dbeafe">
    <animate attributeName="opacity" values=".35;1;.35" dur="2.2s" repeatCount="indefinite"/>
  </circle><circle cx="125" cy="132" r="3.4" fill="#dbeafe">
    <animate attributeName="opacity" values=".35;1;.35" dur="2.4s" repeatCount="indefinite"/>
  </circle><circle cx="125" cy="150" r="3.4" fill="#dbeafe">
    <animate attributeName="opacity" values=".35;1;.35" dur="2.6s" repeatCount="indefinite"/>
  </circle><circle cx="140" cy="43" r="2.4" fill="#dbeafe">
    <animate attributeName="opacity" values=".35;1;.35" dur="2.8s" repeatCount="indefinite"/>
  </circle><circle cx="140" cy="61" r="2.4" fill="#dbeafe">
    <animate attributeName="opacity" values=".35;1;.35" dur="3s" repeatCount="indefinite"/>
  </circle><circle cx="140" cy="79" r="3.4" fill="#dbeafe">
    <animate attributeName="opacity" values=".35;1;.35" dur="3.2s" repeatCount="indefinite"/>
  </circle><circle cx="140" cy="97" r="3.4" fill="#dbeafe">
    <animate attributeName="opacity" values=".35;1;.35" dur="3.4s" repeatCount="indefinite"/>
  </circle><circle cx="140" cy="115" r="3.4" fill="#dbeafe">
    <animate attributeName="opacity" values=".35;1;.35" dur="3.6s" repeatCount="indefinite"/>
  </circle><circle cx="140" cy="133" r="3.4" fill="#dbeafe">
    <animate attributeName="opacity" values=".35;1;.35" dur="2s" repeatCount="indefinite"/>
  </circle><circle cx="140" cy="151" r="3.4" fill="#dbeafe">
    <animate attributeName="opacity" values=".35;1;.35" dur="2.2s" repeatCount="indefinite"/>
  </circle><circle cx="155" cy="44" r="3.4" fill="#dbeafe">
    <animate attributeName="opacity" values=".35;1;.35" dur="2.4s" repeatCount="indefinite"/>
  </circle><circle cx="155" cy="62" r="3.4" fill="#dbeafe">
    <animate attributeName="opacity" values=".35;1;.35" dur="2.6s" repeatCount="indefinite"/>
  </circle><circle cx="155" cy="80" r="2.4" fill="#dbeafe">
    <animate attributeName="opacity" values=".35;1;.35" dur="2.8s" repeatCount="indefinite"/>
  </circle><circle cx="155" cy="98" r="2.4" fill="#dbeafe">
    <animate attributeName="opacity" values=".35;1;.35" dur="3s" repeatCount="indefinite"/>
  </circle><circle cx="155" cy="116" r="2.4" fill="#dbeafe">
    <animate attributeName="opacity" values=".35;1;.35" dur="3.2s" repeatCount="indefinite"/>
  </circle><circle cx="155" cy="134" r="3.4" fill="#dbeafe">
    <animate attributeName="opacity" values=".35;1;.35" dur="3.4s" repeatCount="indefinite"/>
  </circle><circle cx="155" cy="152" r="3.4" fill="#dbeafe">
    <animate attributeName="opacity" values=".35;1;.35" dur="3.6s" repeatCount="indefinite"/>
  </circle><circle cx="170" cy="45" r="2.4" fill="#dbeafe">
    <animate attributeName="opacity" values=".35;1;.35" dur="2s" repeatCount="indefinite"/>
  </circle><circle cx="170" cy="63" r="2.4" fill="#dbeafe">
    <animate attributeName="opacity" values=".35;1;.35" dur="2.2s" repeatCount="indefinite"/>
  </circle><circle cx="170" cy="81" r="4.4" fill="#dbeafe">
    <animate attributeName="opacity" values=".35;1;.35" dur="2.4s" repeatCount="indefinite"/>
  </circle><circle cx="170" cy="99" r="5.4" fill="#dbeafe">
    <animate attributeName="opacity" values=".35;1;.35" dur="2.6s" repeatCount="indefinite"/>
  </circle><circle cx="170" cy="117" r="5.4" fill="#dbeafe">
    <animate attributeName="opacity" values=".35;1;.35" dur="2.8s" repeatCount="indefinite"/>
  </circle><circle cx="170" cy="135" r="5.4" fill="#dbeafe">
    <animate attributeName="opacity" values=".35;1;.35" dur="3s" repeatCount="indefinite"/>
  </circle><circle cx="170" cy="153" r="5.4" fill="#dbeafe">
    <animate attributeName="opacity" values=".35;1;.35" dur="3.2s" repeatCount="indefinite"/>
  </circle><circle cx="185" cy="46" r="2.4" fill="#dbeafe">
    <animate attributeName="opacity" values=".35;1;.35" dur="3.4s" repeatCount="indefinite"/>
  </circle><circle cx="185" cy="64" r="3.4" fill="#dbeafe">
    <animate attributeName="opacity" values=".35;1;.35" dur="3.6s" repeatCount="indefinite"/>
  </circle><circle cx="185" cy="82" r="2.4" fill="#dbeafe">
    <animate attributeName="opacity" values=".35;1;.35" dur="2s" repeatCount="indefinite"/>
  </circle><circle cx="185" cy="100" r="3.4" fill="#dbeafe">
    <animate attributeName="opacity" values=".35;1;.35" dur="2.2s" repeatCount="indefinite"/>
  </circle><circle cx="185" cy="118" r="2.4" fill="#dbeafe">
    <animate attributeName="opacity" values=".35;1;.35" dur="2.4s" repeatCount="indefinite"/>
  </circle><circle cx="185" cy="136" r="3.4" fill="#dbeafe">
    <animate attributeName="opacity" values=".35;1;.35" dur="2.6s" repeatCount="indefinite"/>
  </circle><circle cx="185" cy="154" r="3.4" fill="#dbeafe">
    <animate attributeName="opacity" values=".35;1;.35" dur="2.8s" repeatCount="indefinite"/>
  </circle><circle cx="200" cy="47" r="3.4" fill="#dbeafe">
    <animate attributeName="opacity" values=".35;1;.35" dur="3s" repeatCount="indefinite"/>
  </circle><circle cx="200" cy="65" r="2.4" fill="#dbeafe">
    <animate attributeName="opacity" values=".35;1;.35" dur="3.2s" repeatCount="indefinite"/>
  </circle><circle cx="200" cy="83" r="3.4" fill="#dbeafe">
    <animate attributeName="opacity" values=".35;1;.35" dur="3.4s" repeatCount="indefinite"/>
  </circle><circle cx="200" cy="101" r="2.4" fill="#dbeafe">
    <animate attributeName="opacity" values=".35;1;.35" dur="3.6s" repeatCount="indefinite"/>
  </circle><circle cx="200" cy="119" r="3.4" fill="#dbeafe">
    <animate attributeName="opacity" values=".35;1;.35" dur="2s" repeatCount="indefinite"/>
  </circle><circle cx="200" cy="137" r="3.4" fill="#dbeafe">
    <animate attributeName="opacity" values=".35;1;.35" dur="2.2s" repeatCount="indefinite"/>
  </circle><circle cx="200" cy="155" r="2.4" fill="#dbeafe">
    <animate attributeName="opacity" values=".35;1;.35" dur="2.4s" repeatCount="indefinite"/>
  </circle><circle cx="215" cy="42" r="2.4" fill="#dbeafe">
    <animate attributeName="opacity" values=".35;1;.35" dur="2.6s" repeatCount="indefinite"/>
  </circle><circle cx="215" cy="60" r="3.4" fill="#dbeafe">
    <animate attributeName="opacity" values=".35;1;.35" dur="2.8s" repeatCount="indefinite"/>
  </circle><circle cx="215" cy="78" r="2.4" fill="#dbeafe">
    <animate attributeName="opacity" values=".35;1;.35" dur="3s" repeatCount="indefinite"/>
  </circle><circle cx="215" cy="96" r="2.4" fill="#dbeafe">
    <animate attributeName="opacity" values=".35;1;.35" dur="3.2s" repeatCount="indefinite"/>
  </circle><circle cx="215" cy="114" r="3.4" fill="#dbeafe">
    <animate attributeName="opacity" values=".35;1;.35" dur="3.4s" repeatCount="indefinite"/>
  </circle><circle cx="215" cy="132" r="2.4" fill="#dbeafe">
    <animate attributeName="opacity" values=".35;1;.35" dur="3.6s" repeatCount="indefinite"/>
  </circle><circle cx="215" cy="150" r="2.4" fill="#dbeafe">
    <animate attributeName="opacity" values=".35;1;.35" dur="2s" repeatCount="indefinite"/>
  </circle><circle cx="230" cy="43" r="3.4" fill="#dbeafe">
    <animate attributeName="opacity" values=".35;1;.35" dur="2.2s" repeatCount="indefinite"/>
  </circle><circle cx="230" cy="61" r="2.4" fill="#dbeafe">
    <animate attributeName="opacity" values=".35;1;.35" dur="2.4s" repeatCount="indefinite"/>
  </circle><circle cx="230" cy="79" r="2.4" fill="#dbeafe">
    <animate attributeName="opacity" values=".35;1;.35" dur="2.6s" repeatCount="indefinite"/>
  </circle><circle cx="230" cy="97" r="3.4" fill="#dbeafe">
    <animate attributeName="opacity" values=".35;1;.35" dur="2.8s" repeatCount="indefinite"/>
  </circle><circle cx="230" cy="115" r="3.4" fill="#dbeafe">
    <animate attributeName="opacity" values=".35;1;.35" dur="3s" repeatCount="indefinite"/>
  </circle><circle cx="230" cy="133" r="2.4" fill="#dbeafe">
    <animate attributeName="opacity" values=".35;1;.35" dur="3.2s" repeatCount="indefinite"/>
  </circle><circle cx="230" cy="151" r="2.4" fill="#dbeafe">
    <animate attributeName="opacity" values=".35;1;.35" dur="3.4s" repeatCount="indefinite"/>
  </circle><circle cx="245" cy="44" r="3.4" fill="#dbeafe">
    <animate attributeName="opacity" values=".35;1;.35" dur="3.6s" repeatCount="indefinite"/>
  </circle><circle cx="245" cy="62" r="3.4" fill="#dbeafe">
    <animate attributeName="opacity" values=".35;1;.35" dur="2s" repeatCount="indefinite"/>
  </circle><circle cx="245" cy="80" r="3.4" fill="#dbeafe">
    <animate attributeName="opacity" values=".35;1;.35" dur="2.2s" repeatCount="indefinite"/>
  </circle><circle cx="245" cy="98" r="3.4" fill="#dbeafe">
    <animate attributeName="opacity" values=".35;1;.35" dur="2.4s" repeatCount="indefinite"/>
  </circle><circle cx="245" cy="116" r="2.4" fill="#dbeafe">
    <animate attributeName="opacity" values=".35;1;.35" dur="2.6s" repeatCount="indefinite"/>
  </circle><circle cx="245" cy="134" r="2.4" fill="#dbeafe">
    <animate attributeName="opacity" values=".35;1;.35" dur="2.8s" repeatCount="indefinite"/>
  </circle><circle cx="245" cy="152" r="2.4" fill="#dbeafe">
    <animate attributeName="opacity" values=".35;1;.35" dur="3s" repeatCount="indefinite"/>
  </circle><circle cx="275" cy="46" r="3.4" fill="#dbeafe">
    <animate attributeName="opacity" values=".35;1;.35" dur="3.2s" repeatCount="indefinite"/>
  </circle><circle cx="275" cy="64" r="3.4" fill="#dbeafe">
    <animate attributeName="opacity" values=".35;1;.35" dur="3.4s" repeatCount="indefinite"/>
  </circle><circle cx="275" cy="82" r="3.4" fill="#dbeafe">
    <animate attributeName="opacity" values=".35;1;.35" dur="3.6s" repeatCount="indefinite"/>
  </circle><circle cx="275" cy="100" r="3.4" fill="#dbeafe">
    <animate attributeName="opacity" values=".35;1;.35" dur="2s" repeatCount="indefinite"/>
  </circle><circle cx="275" cy="118" r="2.4" fill="#dbeafe">
    <animate attributeName="opacity" values=".35;1;.35" dur="2.2s" repeatCount="indefinite"/>
  </circle><circle cx="275" cy="136" r="2.4" fill="#dbeafe">
    <animate attributeName="opacity" values=".35;1;.35" dur="2.4s" repeatCount="indefinite"/>
  </circle><circle cx="275" cy="154" r="2.4" fill="#dbeafe">
    <animate attributeName="opacity" values=".35;1;.35" dur="2.6s" repeatCount="indefinite"/>
  </circle><circle cx="290" cy="47" r="4.4" fill="#dbeafe">
    <animate attributeName="opacity" values=".35;1;.35" dur="2.8s" repeatCount="indefinite"/>
  </circle><circle cx="290" cy="65" r="4.4" fill="#dbeafe">
    <animate attributeName="opacity" values=".35;1;.35" dur="3s" repeatCount="indefinite"/>
  </circle><circle cx="290" cy="83" r="4.4" fill="#dbeafe">
    <animate attributeName="opacity" values=".35;1;.35" dur="3.2s" repeatCount="indefinite"/>
  </circle><circle cx="290" cy="101" r="5.4" fill="#dbeafe">
    <animate attributeName="opacity" values=".35;1;.35" dur="3.4s" repeatCount="indefinite"/>
  </circle><circle cx="290" cy="119" r="5.4" fill="#dbeafe">
    <animate attributeName="opacity" values=".35;1;.35" dur="3.6s" repeatCount="indefinite"/>
  </circle><circle cx="290" cy="137" r="2.4" fill="#dbeafe">
    <animate attributeName="opacity" values=".35;1;.35" dur="2s" repeatCount="indefinite"/>
  </circle><circle cx="290" cy="155" r="2.4" fill="#dbeafe">
    <animate attributeName="opacity" values=".35;1;.35" dur="2.2s" repeatCount="indefinite"/>
  </circle><circle cx="305" cy="42" r="2.4" fill="#dbeafe">
    <animate attributeName="opacity" values=".35;1;.35" dur="2.4s" repeatCount="indefinite"/>
  </circle>
    <text x="28" y="184" fill="#93c5fd" font-size="9" letter-spacing="3">URSA COMMITTUS / WendellOttoni</text>
  
  </svg>