<svg xmlns="http://www.w3.org/2000/svg" width="860" height="200" viewBox="0 0 860 200" role="img" aria-labelledby="title desc">
    <title id="title">Etch-a-Sketch contribution animation</title>
    <desc id="desc">a red toy screen draws the contribution path for WendellOttoni with 1587 contributions.</desc>
    <style>text{font-family:ui-monospace,SFMono-Regular,Menlo,Monaco,Consolas,monospace}.mono{font-family:ui-monospace,SFMono-Regular,Menlo,Monaco,Consolas,monospace}</style>
    
    <rect width="100%" height="100%" fill="#b91c1c"/>
    <rect x="42" y="32" width="776" height="130" rx="10" fill="#dbe3e8" stroke="#7f1d1d" stroke-width="5"/>
    <text x="430" y="24" text-anchor="middle" fill="#fee2e2" font-size="12" font-weight="700" letter-spacing="5">ETCH-A-SKETCH</text>
    <path d="M35,45 L35,62 L35,79 L35,96 L35,113 L35,130 L35,147 L50,45 L50,62 L50,79 L50,96 L50,113 L50,130 L50,147 L65,45 L65,62 L65,79 L65,96 L65,113 L65,130 L65,147 L80,45 L80,62 L80,79 L80,96 L80,113 L80,130 L80,147 L95,45 L95,62 L95,79 L95,96 L95,113 L95,130 L95,147 L110,45 L110,62 L110,79 L110,96 L110,113 L110,130 L110,147 L125,45 L125,62 L125,79 L125,96 L125,113 L125,130 L125,147 L140,45 L140,62 L140,79 L140,96 L140,113 L140,130 L140,147 L155,45 L155,62 L155,79 L155,96 L155,113 L155,130 L155,147 L170,45 L170,62 L170,79 L170,96 L170,113 L170,130 L170,147 L185,45 L185,62 L185,79 L185,96 L185,113 L185,130 L185,147 L200,45 L200,62 L200,79 L200,96 L200,113 L200,130 L200,147 L215,45 L215,62 L215,79 L215,96 L215,113 L215,130 L215,147 L230,45 L230,62 L230,79 L230,96 L230,113 L230,130 L230,147 L245,45 L245,62 L245,79 L245,96 L245,113 L245,130 L245,147 L275,45 L275,62 L275,79 L275,96 L275,113 L275,130 L275,147 L290,45 L290,62 L290,79 L290,96 L290,113 L290,130 L290,147 L305,45 L305,62 L305,79 L305,96 L305,113 L305,130 L305,147 L320,45 L320,62 L320,79 L320,96 L320,113 L320,130 L320,147 L335,45 L335,62 L335,79 L335,96 L335,113 L335,130 L335,147 L350,45 L350,62 L350,79 L350,96 L350,113 L350,130 L350,147 L365,45 L365,62 L365,79 L365,96 L365,113 L365,130 L365,147 L380,45 L380,62 L380,79 L380,96 L380,113 L380,130 L380,147 L395,45 L395,62 L395,79 L395,96 L395,113 L395,130 L395,147 L410,45 L410,62 L410,79 L410,96 L410,113 L410,130 L410,147 L425,45 L425,62 L425,79 L425,96 L425,113 L425,130 L425,147 L440,45 L440,62 L440,79 L440,96 L440,113 L440,130 L440,147 L455,45 L455,62 L455,79 L455,96 L455,113 L455,130 L455,147 L470,45 L470,62 L470,79 L470,96 L470,113 L470,130 L470,147 L485,45 L485,62 L485,79 L485,96 L485,113 L485,130 L485,147 L500,45 L500,62 L500,79 L500,96 L500,113 L500,130 L515,130 L515,147 L530,45 L530,62 L530,79 L530,96 L530,113 L530,147 L545,45 L545,62 L545,79 L545,96 L545,113 L545,130 L545,147 L560,45 L560,62 L560,79 L560,96 L560,113 L560,130 L560,147 L575,45 L575,62 L575,79 L575,96 L575,113 L575,130 L575,147 L590,45 L590,62 L590,79 L590,96 L590,113 L590,130 L590,147 L605,45 L605,62 L605,79 L605,96 L605,130 L605,147 L620,45 L620,62 L620,79 L620,113 L620,130 L620,147 L635,45 L635,62 L635,79 L635,96 L635,113 L635,130 L635,147 L650,45 L650,62 L650,79 L650,96 L650,113 L650,130 L650,147 L665,45 L665,62 L665,79 L665,96 L665,113 L665,130 L665,147 L680,45 L680,62 L680,79 L680,96 L680,113 L680,130 L680,147 L695,45 L695,62 L695,79 L695,96 L695,113 L695,130 L695,147 L710,45 L710,62 L710,79 L710,96 L710,113 L710,130 L710,147 L725,45 L725,62 L725,79 L725,96 L725,113 L725,130 L725,147 L740,45 L740,62 L740,79 L740,96 L740,113 L740,130 L740,147 L755,45 L755,62 L755,79 L755,96 L755,113 L755,130 L770,79 L770,96 L770,113 L770,130 L770,147 L785,45 L785,62 L785,79 L785,96 L785,113 L785,147 L800,45 L800,79 L800,96 L800,113 L800,130 L800,147 L815,45 L815,62 L815,79 L815,96 L815,113 L815,130 L815,147" fill="none" stroke="#334155" stroke-width="2.2" stroke-linejoin="round" stroke-linecap="round" stroke-dasharray="1300" stroke-dashoffset="1300">
      <animate attributeName="stroke-dashoffset" values="1300;0;0;1300" keyTimes="0;.6;.85;1" dur="16s" repeatCount="indefinite"/>
    </path>
    <circle cx="74" cy="178" r="16" fill="#f8fafc" stroke="#7f1d1d" stroke-width="3"/>
    <circle cx="786" cy="178" r="16" fill="#f8fafc" stroke="#7f1d1d" stroke-width="3"/>
    <text x="430" y="184" text-anchor="middle" fill="#fee2e2" font-size="9">1587 contributions</text>
  
  </svg>