<svg xmlns="http://www.w3.org/2000/svg" width="860" height="200" viewBox="0 0 860 200" role="img" aria-labelledby="title desc">
    <title id="title">City Skyline contribution animation</title>
    <desc id="desc">weekly contributions become a living skyline for WendellOttoni with 1587 contributions.</desc>
    <style>text{font-family:ui-monospace,SFMono-Regular,Menlo,Monaco,Consolas,monospace}.mono{font-family:ui-monospace,SFMono-Regular,Menlo,Monaco,Consolas,monospace}</style>
    
    <defs><linearGradient id="night" x1="0" y1="0" x2="0" y2="1"><stop stop-color="#061826"/><stop offset="1" stop-color="#111827"/></linearGradient></defs>
    <rect width="100%" height="100%" fill="url(#night)"/>
    <text x="20" y="20" fill="#e5e7eb" font-size="13" font-weight="700" letter-spacing="3">CITY SKYLINE</text>
    <text x="20" y="36" fill="#e5e7eb" opacity=".7" font-size="9">City Skyline - 1587 contributions</text>
    <circle cx="760" cy="48" r="18" fill="#fde68a" opacity=".85"/>
    <g>
      <rect x="20" y="44" width="12" height="128" fill="#1b2838" stroke="#30445f"/>
      <rect x="23" y="52" width="2" height="3" fill="#facc15"/><rect x="27" y="52" width="2" height="3" fill="#475569"/><rect x="23" y="64" width="2" height="3" fill="#facc15"/><rect x="27" y="64" width="2" height="3" fill="#facc15"/><rect x="23" y="76" width="2" height="3" fill="#facc15"/><rect x="27" y="76" width="2" height="3" fill="#475569"/><rect x="23" y="88" width="2" height="3" fill="#facc15"/><rect x="27" y="88" width="2" height="3" fill="#facc15"/><rect x="23" y="100" width="2" height="3" fill="#facc15"/><rect x="27" y="100" width="2" height="3" fill="#475569"/><rect x="23" y="112" width="2" height="3" fill="#facc15"/><rect x="27" y="112" width="2" height="3" fill="#facc15"/><rect x="23" y="124" width="2" height="3" fill="#475569"/><rect x="27" y="124" width="2" height="3" fill="#475569"/>
    </g><g>
      <rect x="36" y="96" width="12" height="76" fill="#243447" stroke="#30445f"/>
      <rect x="39" y="104" width="2" height="3" fill="#facc15"/><rect x="43" y="104" width="2" height="3" fill="#475569"/><rect x="39" y="116" width="2" height="3" fill="#475569"/><rect x="43" y="116" width="2" height="3" fill="#475569"/><rect x="39" y="128" width="2" height="3" fill="#475569"/><rect x="43" y="128" width="2" height="3" fill="#475569"/><rect x="39" y="140" width="2" height="3" fill="#475569"/><rect x="43" y="140" width="2" height="3" fill="#475569"/><rect x="39" y="152" width="2" height="3" fill="#475569"/><rect x="43" y="152" width="2" height="3" fill="#475569"/>
    </g><g>
      <rect x="52" y="90" width="12" height="82" fill="#1b2838" stroke="#30445f"/>
      <rect x="55" y="98" width="2" height="3" fill="#facc15"/><rect x="59" y="98" width="2" height="3" fill="#475569"/><rect x="55" y="110" width="2" height="3" fill="#facc15"/><rect x="59" y="110" width="2" height="3" fill="#facc15"/><rect x="55" y="122" width="2" height="3" fill="#475569"/><rect x="59" y="122" width="2" height="3" fill="#475569"/><rect x="55" y="134" width="2" height="3" fill="#475569"/><rect x="59" y="134" width="2" height="3" fill="#475569"/><rect x="55" y="146" width="2" height="3" fill="#475569"/><rect x="59" y="146" width="2" height="3" fill="#475569"/><rect x="55" y="158" width="2" height="3" fill="#475569"/><rect x="59" y="158" width="2" height="3" fill="#475569"/>
    </g><g>
      <rect x="68" y="93" width="12" height="79" fill="#243447" stroke="#30445f"/>
      <rect x="71" y="101" width="2" height="3" fill="#facc15"/><rect x="75" y="101" width="2" height="3" fill="#475569"/><rect x="71" y="113" width="2" height="3" fill="#facc15"/><rect x="75" y="113" width="2" height="3" fill="#facc15"/><rect x="71" y="125" width="2" height="3" fill="#facc15"/><rect x="75" y="125" width="2" height="3" fill="#475569"/><rect x="71" y="137" width="2" height="3" fill="#475569"/><rect x="75" y="137" width="2" height="3" fill="#475569"/><rect x="71" y="149" width="2" height="3" fill="#475569"/><rect x="75" y="149" width="2" height="3" fill="#475569"/><rect x="71" y="161" width="2" height="3" fill="#475569"/><rect x="75" y="161" width="2" height="3" fill="#475569"/>
    </g><g>
      <rect x="84" y="44" width="12" height="128" fill="#1b2838" stroke="#30445f"/>
      <rect x="87" y="52" width="2" height="3" fill="#facc15"/><rect x="91" y="52" width="2" height="3" fill="#475569"/><rect x="87" y="64" width="2" height="3" fill="#facc15"/><rect x="91" y="64" width="2" height="3" fill="#facc15"/><rect x="87" y="76" width="2" height="3" fill="#facc15"/><rect x="91" y="76" width="2" height="3" fill="#475569"/><rect x="87" y="88" width="2" height="3" fill="#facc15"/><rect x="91" y="88" width="2" height="3" fill="#facc15"/><rect x="87" y="100" width="2" height="3" fill="#facc15"/><rect x="91" y="100" width="2" height="3" fill="#475569"/><rect x="87" y="112" width="2" height="3" fill="#475569"/><rect x="91" y="112" width="2" height="3" fill="#475569"/><rect x="87" y="124" width="2" height="3" fill="#475569"/><rect x="91" y="124" width="2" height="3" fill="#475569"/>
    </g><g>
      <rect x="100" y="87" width="12" height="85" fill="#243447" stroke="#30445f"/>
      <rect x="103" y="95" width="2" height="3" fill="#facc15"/><rect x="107" y="95" width="2" height="3" fill="#475569"/><rect x="103" y="107" width="2" height="3" fill="#facc15"/><rect x="107" y="107" width="2" height="3" fill="#facc15"/><rect x="103" y="119" width="2" height="3" fill="#facc15"/><rect x="107" y="119" width="2" height="3" fill="#475569"/><rect x="103" y="131" width="2" height="3" fill="#475569"/><rect x="107" y="131" width="2" height="3" fill="#475569"/><rect x="103" y="143" width="2" height="3" fill="#475569"/><rect x="107" y="143" width="2" height="3" fill="#475569"/><rect x="103" y="155" width="2" height="3" fill="#475569"/><rect x="107" y="155" width="2" height="3" fill="#475569"/>
    </g><g>
      <rect x="116" y="75" width="12" height="97" fill="#1b2838" stroke="#30445f"/>
      <rect x="119" y="83" width="2" height="3" fill="#facc15"/><rect x="123" y="83" width="2" height="3" fill="#475569"/><rect x="119" y="95" width="2" height="3" fill="#facc15"/><rect x="123" y="95" width="2" height="3" fill="#facc15"/><rect x="119" y="107" width="2" height="3" fill="#facc15"/><rect x="123" y="107" width="2" height="3" fill="#475569"/><rect x="119" y="119" width="2" height="3" fill="#facc15"/><rect x="123" y="119" width="2" height="3" fill="#facc15"/><rect x="119" y="131" width="2" height="3" fill="#475569"/><rect x="123" y="131" width="2" height="3" fill="#475569"/><rect x="119" y="143" width="2" height="3" fill="#475569"/><rect x="123" y="143" width="2" height="3" fill="#475569"/><rect x="119" y="155" width="2" height="3" fill="#475569"/><rect x="123" y="155" width="2" height="3" fill="#475569"/>
    </g><g>
      <rect x="132" y="72" width="12" height="100" fill="#243447" stroke="#30445f"/>
      <rect x="135" y="80" width="2" height="3" fill="#facc15"/><rect x="139" y="80" width="2" height="3" fill="#475569"/><rect x="135" y="92" width="2" height="3" fill="#facc15"/><rect x="139" y="92" width="2" height="3" fill="#facc15"/><rect x="135" y="104" width="2" height="3" fill="#facc15"/><rect x="139" y="104" width="2" height="3" fill="#475569"/><rect x="135" y="116" width="2" height="3" fill="#facc15"/><rect x="139" y="116" width="2" height="3" fill="#facc15"/><rect x="135" y="128" width="2" height="3" fill="#475569"/><rect x="139" y="128" width="2" height="3" fill="#475569"/><rect x="135" y="140" width="2" height="3" fill="#475569"/><rect x="139" y="140" width="2" height="3" fill="#475569"/><rect x="135" y="152" width="2" height="3" fill="#475569"/><rect x="139" y="152" width="2" height="3" fill="#475569"/>
    </g><g>
      <rect x="148" y="87" width="12" height="85" fill="#1b2838" stroke="#30445f"/>
      <rect x="151" y="95" width="2" height="3" fill="#facc15"/><rect x="155" y="95" width="2" height="3" fill="#475569"/><rect x="151" y="107" width="2" height="3" fill="#facc15"/><rect x="155" y="107" width="2" height="3" fill="#facc15"/><rect x="151" y="119" width="2" height="3" fill="#facc15"/><rect x="155" y="119" width="2" height="3" fill="#475569"/><rect x="151" y="131" width="2" height="3" fill="#475569"/><rect x="155" y="131" width="2" height="3" fill="#475569"/><rect x="151" y="143" width="2" height="3" fill="#475569"/><rect x="155" y="143" width="2" height="3" fill="#475569"/><rect x="151" y="155" width="2" height="3" fill="#475569"/><rect x="155" y="155" width="2" height="3" fill="#475569"/>
    </g><g>
      <rect x="164" y="44" width="12" height="128" fill="#243447" stroke="#30445f"/>
      <rect x="167" y="52" width="2" height="3" fill="#facc15"/><rect x="171" y="52" width="2" height="3" fill="#475569"/><rect x="167" y="64" width="2" height="3" fill="#facc15"/><rect x="171" y="64" width="2" height="3" fill="#facc15"/><rect x="167" y="76" width="2" height="3" fill="#facc15"/><rect x="171" y="76" width="2" height="3" fill="#475569"/><rect x="167" y="88" width="2" height="3" fill="#facc15"/><rect x="171" y="88" width="2" height="3" fill="#facc15"/><rect x="167" y="100" width="2" height="3" fill="#facc15"/><rect x="171" y="100" width="2" height="3" fill="#475569"/><rect x="167" y="112" width="2" height="3" fill="#475569"/><rect x="171" y="112" width="2" height="3" fill="#475569"/><rect x="167" y="124" width="2" height="3" fill="#475569"/><rect x="171" y="124" width="2" height="3" fill="#475569"/>
    </g><g>
      <rect x="180" y="93" width="12" height="79" fill="#1b2838" stroke="#30445f"/>
      <rect x="183" y="101" width="2" height="3" fill="#facc15"/><rect x="187" y="101" width="2" height="3" fill="#475569"/><rect x="183" y="113" width="2" height="3" fill="#facc15"/><rect x="187" y="113" width="2" height="3" fill="#facc15"/><rect x="183" y="125" width="2" height="3" fill="#facc15"/><rect x="187" y="125" width="2" height="3" fill="#475569"/><rect x="183" y="137" width="2" height="3" fill="#475569"/><rect x="187" y="137" width="2" height="3" fill="#475569"/><rect x="183" y="149" width="2" height="3" fill="#475569"/><rect x="187" y="149" width="2" height="3" fill="#475569"/><rect x="183" y="161" width="2" height="3" fill="#475569"/><rect x="187" y="161" width="2" height="3" fill="#475569"/>
    </g><g>
      <rect x="196" y="87" width="12" height="85" fill="#243447" stroke="#30445f"/>
      <rect x="199" y="95" width="2" height="3" fill="#facc15"/><rect x="203" y="95" width="2" height="3" fill="#475569"/><rect x="199" y="107" width="2" height="3" fill="#facc15"/><rect x="203" y="107" width="2" height="3" fill="#facc15"/><rect x="199" y="119" width="2" height="3" fill="#facc15"/><rect x="203" y="119" width="2" height="3" fill="#475569"/><rect x="199" y="131" width="2" height="3" fill="#475569"/><rect x="203" y="131" width="2" height="3" fill="#475569"/><rect x="199" y="143" width="2" height="3" fill="#475569"/><rect x="203" y="143" width="2" height="3" fill="#475569"/><rect x="199" y="155" width="2" height="3" fill="#475569"/><rect x="203" y="155" width="2" height="3" fill="#475569"/>
    </g><g>
      <rect x="212" y="99" width="12" height="73" fill="#1b2838" stroke="#30445f"/>
      <rect x="215" y="107" width="2" height="3" fill="#facc15"/><rect x="219" y="107" width="2" height="3" fill="#475569"/><rect x="215" y="119" width="2" height="3" fill="#475569"/><rect x="219" y="119" width="2" height="3" fill="#475569"/><rect x="215" y="131" width="2" height="3" fill="#475569"/><rect x="219" y="131" width="2" height="3" fill="#475569"/><rect x="215" y="143" width="2" height="3" fill="#475569"/><rect x="219" y="143" width="2" height="3" fill="#475569"/><rect x="215" y="155" width="2" height="3" fill="#475569"/><rect x="219" y="155" width="2" height="3" fill="#475569"/>
    </g><g>
      <rect x="228" y="96" width="12" height="76" fill="#243447" stroke="#30445f"/>
      <rect x="231" y="104" width="2" height="3" fill="#facc15"/><rect x="235" y="104" width="2" height="3" fill="#475569"/><rect x="231" y="116" width="2" height="3" fill="#facc15"/><rect x="235" y="116" width="2" height="3" fill="#facc15"/><rect x="231" y="128" width="2" height="3" fill="#475569"/><rect x="235" y="128" width="2" height="3" fill="#475569"/><rect x="231" y="140" width="2" height="3" fill="#475569"/><rect x="235" y="140" width="2" height="3" fill="#475569"/><rect x="231" y="152" width="2" height="3" fill="#475569"/><rect x="235" y="152" width="2" height="3" fill="#475569"/>
    </g><g>
      <rect x="244" y="93" width="12" height="79" fill="#1b2838" stroke="#30445f"/>
      <rect x="247" y="101" width="2" height="3" fill="#facc15"/><rect x="251" y="101" width="2" height="3" fill="#475569"/><rect x="247" y="113" width="2" height="3" fill="#facc15"/><rect x="251" y="113" width="2" height="3" fill="#facc15"/><rect x="247" y="125" width="2" height="3" fill="#facc15"/><rect x="251" y="125" width="2" height="3" fill="#475569"/><rect x="247" y="137" width="2" height="3" fill="#475569"/><rect x="251" y="137" width="2" height="3" fill="#475569"/><rect x="247" y="149" width="2" height="3" fill="#475569"/><rect x="251" y="149" width="2" height="3" fill="#475569"/><rect x="247" y="161" width="2" height="3" fill="#475569"/><rect x="251" y="161" width="2" height="3" fill="#475569"/>
    </g><g>
      <rect x="260" y="162" width="12" height="10" fill="#243447" stroke="#30445f"/>
      
    </g><g>
      <rect x="276" y="93" width="12" height="79" fill="#1b2838" stroke="#30445f"/>
      <rect x="279" y="101" width="2" height="3" fill="#facc15"/><rect x="283" y="101" width="2" height="3" fill="#475569"/><rect x="279" y="113" width="2" height="3" fill="#facc15"/><rect x="283" y="113" width="2" height="3" fill="#facc15"/><rect x="279" y="125" width="2" height="3" fill="#facc15"/><rect x="283" y="125" width="2" height="3" fill="#475569"/><rect x="279" y="137" width="2" height="3" fill="#475569"/><rect x="283" y="137" width="2" height="3" fill="#475569"/><rect x="279" y="149" width="2" height="3" fill="#475569"/><rect x="283" y="149" width="2" height="3" fill="#475569"/><rect x="279" y="161" width="2" height="3" fill="#475569"/><rect x="283" y="161" width="2" height="3" fill="#475569"/>
    </g><g>
      <rect x="292" y="44" width="12" height="128" fill="#243447" stroke="#30445f"/>
      <rect x="295" y="52" width="2" height="3" fill="#facc15"/><rect x="299" y="52" width="2" height="3" fill="#475569"/><rect x="295" y="64" width="2" height="3" fill="#facc15"/><rect x="299" y="64" width="2" height="3" fill="#facc15"/><rect x="295" y="76" width="2" height="3" fill="#facc15"/><rect x="299" y="76" width="2" height="3" fill="#475569"/><rect x="295" y="88" width="2" height="3" fill="#475569"/><rect x="299" y="88" width="2" height="3" fill="#475569"/><rect x="295" y="100" width="2" height="3" fill="#475569"/><rect x="299" y="100" width="2" height="3" fill="#475569"/><rect x="295" y="112" width="2" height="3" fill="#475569"/><rect x="299" y="112" width="2" height="3" fill="#475569"/><rect x="295" y="124" width="2" height="3" fill="#475569"/><rect x="299" y="124" width="2" height="3" fill="#475569"/>
    </g><g>
      <rect x="308" y="44" width="12" height="128" fill="#1b2838" stroke="#30445f"/>
      <rect x="311" y="52" width="2" height="3" fill="#facc15"/><rect x="315" y="52" width="2" height="3" fill="#475569"/><rect x="311" y="64" width="2" height="3" fill="#facc15"/><rect x="315" y="64" width="2" height="3" fill="#facc15"/><rect x="311" y="76" width="2" height="3" fill="#facc15"/><rect x="315" y="76" width="2" height="3" fill="#475569"/><rect x="311" y="88" width="2" height="3" fill="#facc15"/><rect x="315" y="88" width="2" height="3" fill="#facc15"/><rect x="311" y="100" width="2" height="3" fill="#facc15"/><rect x="315" y="100" width="2" height="3" fill="#475569"/><rect x="311" y="112" width="2" height="3" fill="#facc15"/><rect x="315" y="112" width="2" height="3" fill="#facc15"/><rect x="311" y="124" width="2" height="3" fill="#475569"/><rect x="315" y="124" width="2" height="3" fill="#475569"/>
    </g><g>
      <rect x="324" y="87" width="12" height="85" fill="#243447" stroke="#30445f"/>
      <rect x="327" y="95" width="2" height="3" fill="#facc15"/><rect x="331" y="95" width="2" height="3" fill="#475569"/><rect x="327" y="107" width="2" height="3" fill="#facc15"/><rect x="331" y="107" width="2" height="3" fill="#facc15"/><rect x="327" y="119" width="2" height="3" fill="#facc15"/><rect x="331" y="119" width="2" height="3" fill="#475569"/><rect x="327" y="131" width="2" height="3" fill="#475569"/><rect x="331" y="131" width="2" height="3" fill="#475569"/><rect x="327" y="143" width="2" height="3" fill="#475569"/><rect x="331" y="143" width="2" height="3" fill="#475569"/><rect x="327" y="155" width="2" height="3" fill="#475569"/><rect x="331" y="155" width="2" height="3" fill="#475569"/>
    </g><g>
      <rect x="340" y="90" width="12" height="82" fill="#1b2838" stroke="#30445f"/>
      <rect x="343" y="98" width="2" height="3" fill="#facc15"/><rect x="347" y="98" width="2" height="3" fill="#475569"/><rect x="343" y="110" width="2" height="3" fill="#facc15"/><rect x="347" y="110" width="2" height="3" fill="#facc15"/><rect x="343" y="122" width="2" height="3" fill="#facc15"/><rect x="347" y="122" width="2" height="3" fill="#475569"/><rect x="343" y="134" width="2" height="3" fill="#475569"/><rect x="347" y="134" width="2" height="3" fill="#475569"/><rect x="343" y="146" width="2" height="3" fill="#475569"/><rect x="347" y="146" width="2" height="3" fill="#475569"/><rect x="343" y="158" width="2" height="3" fill="#475569"/><rect x="347" y="158" width="2" height="3" fill="#475569"/>
    </g><g>
      <rect x="356" y="93" width="12" height="79" fill="#243447" stroke="#30445f"/>
      <rect x="359" y="101" width="2" height="3" fill="#facc15"/><rect x="363" y="101" width="2" height="3" fill="#475569"/><rect x="359" y="113" width="2" height="3" fill="#facc15"/><rect x="363" y="113" width="2" height="3" fill="#facc15"/><rect x="359" y="125" width="2" height="3" fill="#facc15"/><rect x="363" y="125" width="2" height="3" fill="#475569"/><rect x="359" y="137" width="2" height="3" fill="#475569"/><rect x="363" y="137" width="2" height="3" fill="#475569"/><rect x="359" y="149" width="2" height="3" fill="#475569"/><rect x="363" y="149" width="2" height="3" fill="#475569"/><rect x="359" y="161" width="2" height="3" fill="#475569"/><rect x="363" y="161" width="2" height="3" fill="#475569"/>
    </g><g>
      <rect x="372" y="87" width="12" height="85" fill="#1b2838" stroke="#30445f"/>
      <rect x="375" y="95" width="2" height="3" fill="#facc15"/><rect x="379" y="95" width="2" height="3" fill="#475569"/><rect x="375" y="107" width="2" height="3" fill="#facc15"/><rect x="379" y="107" width="2" height="3" fill="#facc15"/><rect x="375" y="119" width="2" height="3" fill="#facc15"/><rect x="379" y="119" width="2" height="3" fill="#475569"/><rect x="375" y="131" width="2" height="3" fill="#475569"/><rect x="379" y="131" width="2" height="3" fill="#475569"/><rect x="375" y="143" width="2" height="3" fill="#475569"/><rect x="379" y="143" width="2" height="3" fill="#475569"/><rect x="375" y="155" width="2" height="3" fill="#475569"/><rect x="379" y="155" width="2" height="3" fill="#475569"/>
    </g><g>
      <rect x="388" y="75" width="12" height="97" fill="#243447" stroke="#30445f"/>
      <rect x="391" y="83" width="2" height="3" fill="#facc15"/><rect x="395" y="83" width="2" height="3" fill="#475569"/><rect x="391" y="95" width="2" height="3" fill="#facc15"/><rect x="395" y="95" width="2" height="3" fill="#facc15"/><rect x="391" y="107" width="2" height="3" fill="#facc15"/><rect x="395" y="107" width="2" height="3" fill="#475569"/><rect x="391" y="119" width="2" height="3" fill="#facc15"/><rect x="395" y="119" width="2" height="3" fill="#facc15"/><rect x="391" y="131" width="2" height="3" fill="#475569"/><rect x="395" y="131" width="2" height="3" fill="#475569"/><rect x="391" y="143" width="2" height="3" fill="#475569"/><rect x="395" y="143" width="2" height="3" fill="#475569"/><rect x="391" y="155" width="2" height="3" fill="#475569"/><rect x="395" y="155" width="2" height="3" fill="#475569"/>
    </g><g>
      <rect x="404" y="69" width="12" height="103" fill="#1b2838" stroke="#30445f"/>
      <rect x="407" y="77" width="2" height="3" fill="#facc15"/><rect x="411" y="77" width="2" height="3" fill="#475569"/><rect x="407" y="89" width="2" height="3" fill="#facc15"/><rect x="411" y="89" width="2" height="3" fill="#facc15"/><rect x="407" y="101" width="2" height="3" fill="#facc15"/><rect x="411" y="101" width="2" height="3" fill="#475569"/><rect x="407" y="113" width="2" height="3" fill="#facc15"/><rect x="411" y="113" width="2" height="3" fill="#facc15"/><rect x="407" y="125" width="2" height="3" fill="#facc15"/><rect x="411" y="125" width="2" height="3" fill="#475569"/><rect x="407" y="137" width="2" height="3" fill="#475569"/><rect x="411" y="137" width="2" height="3" fill="#475569"/><rect x="407" y="149" width="2" height="3" fill="#475569"/><rect x="411" y="149" width="2" height="3" fill="#475569"/>
    </g><g>
      <rect x="420" y="84" width="12" height="88" fill="#243447" stroke="#30445f"/>
      <rect x="423" y="92" width="2" height="3" fill="#facc15"/><rect x="427" y="92" width="2" height="3" fill="#475569"/><rect x="423" y="104" width="2" height="3" fill="#facc15"/><rect x="427" y="104" width="2" height="3" fill="#facc15"/><rect x="423" y="116" width="2" height="3" fill="#facc15"/><rect x="427" y="116" width="2" height="3" fill="#475569"/><rect x="423" y="128" width="2" height="3" fill="#facc15"/><rect x="427" y="128" width="2" height="3" fill="#facc15"/><rect x="423" y="140" width="2" height="3" fill="#475569"/><rect x="427" y="140" width="2" height="3" fill="#475569"/><rect x="423" y="152" width="2" height="3" fill="#475569"/><rect x="427" y="152" width="2" height="3" fill="#475569"/>
    </g><g>
      <rect x="436" y="93" width="12" height="79" fill="#1b2838" stroke="#30445f"/>
      <rect x="439" y="101" width="2" height="3" fill="#facc15"/><rect x="443" y="101" width="2" height="3" fill="#475569"/><rect x="439" y="113" width="2" height="3" fill="#facc15"/><rect x="443" y="113" width="2" height="3" fill="#facc15"/><rect x="439" y="125" width="2" height="3" fill="#475569"/><rect x="443" y="125" width="2" height="3" fill="#475569"/><rect x="439" y="137" width="2" height="3" fill="#475569"/><rect x="443" y="137" width="2" height="3" fill="#475569"/><rect x="439" y="149" width="2" height="3" fill="#475569"/><rect x="443" y="149" width="2" height="3" fill="#475569"/><rect x="439" y="161" width="2" height="3" fill="#475569"/><rect x="443" y="161" width="2" height="3" fill="#475569"/>
    </g><g>
      <rect x="452" y="44" width="12" height="128" fill="#243447" stroke="#30445f"/>
      <rect x="455" y="52" width="2" height="3" fill="#facc15"/><rect x="459" y="52" width="2" height="3" fill="#475569"/><rect x="455" y="64" width="2" height="3" fill="#facc15"/><rect x="459" y="64" width="2" height="3" fill="#facc15"/><rect x="455" y="76" width="2" height="3" fill="#facc15"/><rect x="459" y="76" width="2" height="3" fill="#475569"/><rect x="455" y="88" width="2" height="3" fill="#facc15"/><rect x="459" y="88" width="2" height="3" fill="#facc15"/><rect x="455" y="100" width="2" height="3" fill="#facc15"/><rect x="459" y="100" width="2" height="3" fill="#475569"/><rect x="455" y="112" width="2" height="3" fill="#facc15"/><rect x="459" y="112" width="2" height="3" fill="#facc15"/><rect x="455" y="124" width="2" height="3" fill="#475569"/><rect x="459" y="124" width="2" height="3" fill="#475569"/>
    </g><g>
      <rect x="468" y="87" width="12" height="85" fill="#1b2838" stroke="#30445f"/>
      <rect x="471" y="95" width="2" height="3" fill="#facc15"/><rect x="475" y="95" width="2" height="3" fill="#475569"/><rect x="471" y="107" width="2" height="3" fill="#facc15"/><rect x="475" y="107" width="2" height="3" fill="#facc15"/><rect x="471" y="119" width="2" height="3" fill="#facc15"/><rect x="475" y="119" width="2" height="3" fill="#475569"/><rect x="471" y="131" width="2" height="3" fill="#475569"/><rect x="475" y="131" width="2" height="3" fill="#475569"/><rect x="471" y="143" width="2" height="3" fill="#475569"/><rect x="475" y="143" width="2" height="3" fill="#475569"/><rect x="471" y="155" width="2" height="3" fill="#475569"/><rect x="475" y="155" width="2" height="3" fill="#475569"/>
    </g><g>
      <rect x="484" y="99" width="12" height="73" fill="#243447" stroke="#30445f"/>
      <rect x="487" y="107" width="2" height="3" fill="#facc15"/><rect x="491" y="107" width="2" height="3" fill="#475569"/><rect x="487" y="119" width="2" height="3" fill="#facc15"/><rect x="491" y="119" width="2" height="3" fill="#facc15"/><rect x="487" y="131" width="2" height="3" fill="#475569"/><rect x="491" y="131" width="2" height="3" fill="#475569"/><rect x="487" y="143" width="2" height="3" fill="#475569"/><rect x="491" y="143" width="2" height="3" fill="#475569"/><rect x="487" y="155" width="2" height="3" fill="#475569"/><rect x="491" y="155" width="2" height="3" fill="#475569"/>
    </g><g>
      <rect x="500" y="44" width="12" height="128" fill="#1b2838" stroke="#30445f"/>
      <rect x="503" y="52" width="2" height="3" fill="#facc15"/><rect x="507" y="52" width="2" height="3" fill="#475569"/><rect x="503" y="64" width="2" height="3" fill="#facc15"/><rect x="507" y="64" width="2" height="3" fill="#facc15"/><rect x="503" y="76" width="2" height="3" fill="#facc15"/><rect x="507" y="76" width="2" height="3" fill="#475569"/><rect x="503" y="88" width="2" height="3" fill="#475569"/><rect x="507" y="88" width="2" height="3" fill="#475569"/><rect x="503" y="100" width="2" height="3" fill="#475569"/><rect x="507" y="100" width="2" height="3" fill="#475569"/><rect x="503" y="112" width="2" height="3" fill="#475569"/><rect x="507" y="112" width="2" height="3" fill="#475569"/><rect x="503" y="124" width="2" height="3" fill="#475569"/><rect x="507" y="124" width="2" height="3" fill="#475569"/>
    </g><g>
      <rect x="516" y="96" width="12" height="76" fill="#243447" stroke="#30445f"/>
      <rect x="519" y="104" width="2" height="3" fill="#facc15"/><rect x="523" y="104" width="2" height="3" fill="#475569"/><rect x="519" y="116" width="2" height="3" fill="#facc15"/><rect x="523" y="116" width="2" height="3" fill="#facc15"/><rect x="519" y="128" width="2" height="3" fill="#475569"/><rect x="523" y="128" width="2" height="3" fill="#475569"/><rect x="519" y="140" width="2" height="3" fill="#475569"/><rect x="523" y="140" width="2" height="3" fill="#475569"/><rect x="519" y="152" width="2" height="3" fill="#475569"/><rect x="523" y="152" width="2" height="3" fill="#475569"/>
    </g><g>
      <rect x="532" y="156" width="12" height="16" fill="#1b2838" stroke="#30445f"/>
      <rect x="535" y="164" width="2" height="3" fill="#facc15"/><rect x="539" y="164" width="2" height="3" fill="#475569"/>
    </g><g>
      <rect x="548" y="93" width="12" height="79" fill="#243447" stroke="#30445f"/>
      <rect x="551" y="101" width="2" height="3" fill="#facc15"/><rect x="555" y="101" width="2" height="3" fill="#475569"/><rect x="551" y="113" width="2" height="3" fill="#facc15"/><rect x="555" y="113" width="2" height="3" fill="#facc15"/><rect x="551" y="125" width="2" height="3" fill="#475569"/><rect x="555" y="125" width="2" height="3" fill="#475569"/><rect x="551" y="137" width="2" height="3" fill="#475569"/><rect x="555" y="137" width="2" height="3" fill="#475569"/><rect x="551" y="149" width="2" height="3" fill="#475569"/><rect x="555" y="149" width="2" height="3" fill="#475569"/><rect x="551" y="161" width="2" height="3" fill="#475569"/><rect x="555" y="161" width="2" height="3" fill="#475569"/>
    </g><g>
      <rect x="564" y="102" width="12" height="70" fill="#1b2838" stroke="#30445f"/>
      <rect x="567" y="110" width="2" height="3" fill="#facc15"/><rect x="571" y="110" width="2" height="3" fill="#475569"/><rect x="567" y="122" width="2" height="3" fill="#facc15"/><rect x="571" y="122" width="2" height="3" fill="#facc15"/><rect x="567" y="134" width="2" height="3" fill="#475569"/><rect x="571" y="134" width="2" height="3" fill="#475569"/><rect x="567" y="146" width="2" height="3" fill="#475569"/><rect x="571" y="146" width="2" height="3" fill="#475569"/><rect x="567" y="158" width="2" height="3" fill="#475569"/><rect x="571" y="158" width="2" height="3" fill="#475569"/>
    </g><g>
      <rect x="580" y="99" width="12" height="73" fill="#243447" stroke="#30445f"/>
      <rect x="583" y="107" width="2" height="3" fill="#facc15"/><rect x="587" y="107" width="2" height="3" fill="#475569"/><rect x="583" y="119" width="2" height="3" fill="#475569"/><rect x="587" y="119" width="2" height="3" fill="#475569"/><rect x="583" y="131" width="2" height="3" fill="#475569"/><rect x="587" y="131" width="2" height="3" fill="#475569"/><rect x="583" y="143" width="2" height="3" fill="#475569"/><rect x="587" y="143" width="2" height="3" fill="#475569"/><rect x="583" y="155" width="2" height="3" fill="#475569"/><rect x="587" y="155" width="2" height="3" fill="#475569"/>
    </g><g>
      <rect x="596" y="44" width="12" height="128" fill="#1b2838" stroke="#30445f"/>
      <rect x="599" y="52" width="2" height="3" fill="#facc15"/><rect x="603" y="52" width="2" height="3" fill="#475569"/><rect x="599" y="64" width="2" height="3" fill="#facc15"/><rect x="603" y="64" width="2" height="3" fill="#facc15"/><rect x="599" y="76" width="2" height="3" fill="#facc15"/><rect x="603" y="76" width="2" height="3" fill="#475569"/><rect x="599" y="88" width="2" height="3" fill="#facc15"/><rect x="603" y="88" width="2" height="3" fill="#facc15"/><rect x="599" y="100" width="2" height="3" fill="#facc15"/><rect x="603" y="100" width="2" height="3" fill="#475569"/><rect x="599" y="112" width="2" height="3" fill="#facc15"/><rect x="603" y="112" width="2" height="3" fill="#facc15"/><rect x="599" y="124" width="2" height="3" fill="#475569"/><rect x="603" y="124" width="2" height="3" fill="#475569"/>
    </g><g>
      <rect x="612" y="90" width="12" height="82" fill="#243447" stroke="#30445f"/>
      <rect x="615" y="98" width="2" height="3" fill="#facc15"/><rect x="619" y="98" width="2" height="3" fill="#475569"/><rect x="615" y="110" width="2" height="3" fill="#facc15"/><rect x="619" y="110" width="2" height="3" fill="#facc15"/><rect x="615" y="122" width="2" height="3" fill="#facc15"/><rect x="619" y="122" width="2" height="3" fill="#475569"/><rect x="615" y="134" width="2" height="3" fill="#475569"/><rect x="619" y="134" width="2" height="3" fill="#475569"/><rect x="615" y="146" width="2" height="3" fill="#475569"/><rect x="619" y="146" width="2" height="3" fill="#475569"/><rect x="615" y="158" width="2" height="3" fill="#475569"/><rect x="619" y="158" width="2" height="3" fill="#475569"/>
    </g><g>
      <rect x="628" y="96" width="12" height="76" fill="#1b2838" stroke="#30445f"/>
      <rect x="631" y="104" width="2" height="3" fill="#facc15"/><rect x="635" y="104" width="2" height="3" fill="#475569"/><rect x="631" y="116" width="2" height="3" fill="#facc15"/><rect x="635" y="116" width="2" height="3" fill="#facc15"/><rect x="631" y="128" width="2" height="3" fill="#475569"/><rect x="635" y="128" width="2" height="3" fill="#475569"/><rect x="631" y="140" width="2" height="3" fill="#475569"/><rect x="635" y="140" width="2" height="3" fill="#475569"/><rect x="631" y="152" width="2" height="3" fill="#475569"/><rect x="635" y="152" width="2" height="3" fill="#475569"/>
    </g><g>
      <rect x="644" y="90" width="12" height="82" fill="#243447" stroke="#30445f"/>
      <rect x="647" y="98" width="2" height="3" fill="#facc15"/><rect x="651" y="98" width="2" height="3" fill="#475569"/><rect x="647" y="110" width="2" height="3" fill="#facc15"/><rect x="651" y="110" width="2" height="3" fill="#facc15"/><rect x="647" y="122" width="2" height="3" fill="#475569"/><rect x="651" y="122" width="2" height="3" fill="#475569"/><rect x="647" y="134" width="2" height="3" fill="#475569"/><rect x="651" y="134" width="2" height="3" fill="#475569"/><rect x="647" y="146" width="2" height="3" fill="#475569"/><rect x="651" y="146" width="2" height="3" fill="#475569"/><rect x="647" y="158" width="2" height="3" fill="#475569"/><rect x="651" y="158" width="2" height="3" fill="#475569"/>
    </g><g>
      <rect x="660" y="78" width="12" height="94" fill="#1b2838" stroke="#30445f"/>
      <rect x="663" y="86" width="2" height="3" fill="#facc15"/><rect x="667" y="86" width="2" height="3" fill="#475569"/><rect x="663" y="98" width="2" height="3" fill="#facc15"/><rect x="667" y="98" width="2" height="3" fill="#facc15"/><rect x="663" y="110" width="2" height="3" fill="#facc15"/><rect x="667" y="110" width="2" height="3" fill="#475569"/><rect x="663" y="122" width="2" height="3" fill="#facc15"/><rect x="667" y="122" width="2" height="3" fill="#facc15"/><rect x="663" y="134" width="2" height="3" fill="#475569"/><rect x="667" y="134" width="2" height="3" fill="#475569"/><rect x="663" y="146" width="2" height="3" fill="#475569"/><rect x="667" y="146" width="2" height="3" fill="#475569"/><rect x="663" y="158" width="2" height="3" fill="#475569"/><rect x="667" y="158" width="2" height="3" fill="#475569"/>
    </g><g>
      <rect x="676" y="69" width="12" height="103" fill="#243447" stroke="#30445f"/>
      <rect x="679" y="77" width="2" height="3" fill="#facc15"/><rect x="683" y="77" width="2" height="3" fill="#475569"/><rect x="679" y="89" width="2" height="3" fill="#facc15"/><rect x="683" y="89" width="2" height="3" fill="#facc15"/><rect x="679" y="101" width="2" height="3" fill="#facc15"/><rect x="683" y="101" width="2" height="3" fill="#475569"/><rect x="679" y="113" width="2" height="3" fill="#facc15"/><rect x="683" y="113" width="2" height="3" fill="#facc15"/><rect x="679" y="125" width="2" height="3" fill="#facc15"/><rect x="683" y="125" width="2" height="3" fill="#475569"/><rect x="679" y="137" width="2" height="3" fill="#475569"/><rect x="683" y="137" width="2" height="3" fill="#475569"/><rect x="679" y="149" width="2" height="3" fill="#475569"/><rect x="683" y="149" width="2" height="3" fill="#475569"/>
    </g><g>
      <rect x="692" y="87" width="12" height="85" fill="#1b2838" stroke="#30445f"/>
      <rect x="695" y="95" width="2" height="3" fill="#facc15"/><rect x="699" y="95" width="2" height="3" fill="#475569"/><rect x="695" y="107" width="2" height="3" fill="#facc15"/><rect x="699" y="107" width="2" height="3" fill="#facc15"/><rect x="695" y="119" width="2" height="3" fill="#facc15"/><rect x="699" y="119" width="2" height="3" fill="#475569"/><rect x="695" y="131" width="2" height="3" fill="#facc15"/><rect x="699" y="131" width="2" height="3" fill="#facc15"/><rect x="695" y="143" width="2" height="3" fill="#475569"/><rect x="699" y="143" width="2" height="3" fill="#475569"/><rect x="695" y="155" width="2" height="3" fill="#475569"/><rect x="699" y="155" width="2" height="3" fill="#475569"/>
    </g><g>
      <rect x="708" y="44" width="12" height="128" fill="#243447" stroke="#30445f"/>
      <rect x="711" y="52" width="2" height="3" fill="#facc15"/><rect x="715" y="52" width="2" height="3" fill="#475569"/><rect x="711" y="64" width="2" height="3" fill="#facc15"/><rect x="715" y="64" width="2" height="3" fill="#facc15"/><rect x="711" y="76" width="2" height="3" fill="#facc15"/><rect x="715" y="76" width="2" height="3" fill="#475569"/><rect x="711" y="88" width="2" height="3" fill="#facc15"/><rect x="715" y="88" width="2" height="3" fill="#facc15"/><rect x="711" y="100" width="2" height="3" fill="#facc15"/><rect x="715" y="100" width="2" height="3" fill="#475569"/><rect x="711" y="112" width="2" height="3" fill="#475569"/><rect x="715" y="112" width="2" height="3" fill="#475569"/><rect x="711" y="124" width="2" height="3" fill="#475569"/><rect x="715" y="124" width="2" height="3" fill="#475569"/>
    </g><g>
      <rect x="724" y="96" width="12" height="76" fill="#1b2838" stroke="#30445f"/>
      <rect x="727" y="104" width="2" height="3" fill="#facc15"/><rect x="731" y="104" width="2" height="3" fill="#475569"/><rect x="727" y="116" width="2" height="3" fill="#facc15"/><rect x="731" y="116" width="2" height="3" fill="#facc15"/><rect x="727" y="128" width="2" height="3" fill="#facc15"/><rect x="731" y="128" width="2" height="3" fill="#475569"/><rect x="727" y="140" width="2" height="3" fill="#475569"/><rect x="731" y="140" width="2" height="3" fill="#475569"/><rect x="727" y="152" width="2" height="3" fill="#475569"/><rect x="731" y="152" width="2" height="3" fill="#475569"/>
    </g><g>
      <rect x="740" y="44" width="12" height="128" fill="#243447" stroke="#30445f"/>
      <rect x="743" y="52" width="2" height="3" fill="#facc15"/><rect x="747" y="52" width="2" height="3" fill="#475569"/><rect x="743" y="64" width="2" height="3" fill="#facc15"/><rect x="747" y="64" width="2" height="3" fill="#facc15"/><rect x="743" y="76" width="2" height="3" fill="#facc15"/><rect x="747" y="76" width="2" height="3" fill="#475569"/><rect x="743" y="88" width="2" height="3" fill="#facc15"/><rect x="747" y="88" width="2" height="3" fill="#facc15"/><rect x="743" y="100" width="2" height="3" fill="#facc15"/><rect x="747" y="100" width="2" height="3" fill="#475569"/><rect x="743" y="112" width="2" height="3" fill="#facc15"/><rect x="747" y="112" width="2" height="3" fill="#facc15"/><rect x="743" y="124" width="2" height="3" fill="#475569"/><rect x="747" y="124" width="2" height="3" fill="#475569"/>
    </g><g>
      <rect x="756" y="99" width="12" height="73" fill="#1b2838" stroke="#30445f"/>
      <rect x="759" y="107" width="2" height="3" fill="#facc15"/><rect x="763" y="107" width="2" height="3" fill="#475569"/><rect x="759" y="119" width="2" height="3" fill="#facc15"/><rect x="763" y="119" width="2" height="3" fill="#facc15"/><rect x="759" y="131" width="2" height="3" fill="#475569"/><rect x="763" y="131" width="2" height="3" fill="#475569"/><rect x="759" y="143" width="2" height="3" fill="#475569"/><rect x="763" y="143" width="2" height="3" fill="#475569"/><rect x="759" y="155" width="2" height="3" fill="#475569"/><rect x="763" y="155" width="2" height="3" fill="#475569"/>
    </g><g>
      <rect x="772" y="99" width="12" height="73" fill="#243447" stroke="#30445f"/>
      <rect x="775" y="107" width="2" height="3" fill="#facc15"/><rect x="779" y="107" width="2" height="3" fill="#475569"/><rect x="775" y="119" width="2" height="3" fill="#facc15"/><rect x="779" y="119" width="2" height="3" fill="#facc15"/><rect x="775" y="131" width="2" height="3" fill="#475569"/><rect x="779" y="131" width="2" height="3" fill="#475569"/><rect x="775" y="143" width="2" height="3" fill="#475569"/><rect x="779" y="143" width="2" height="3" fill="#475569"/><rect x="775" y="155" width="2" height="3" fill="#475569"/><rect x="779" y="155" width="2" height="3" fill="#475569"/>
    </g><g>
      <rect x="788" y="93" width="12" height="79" fill="#1b2838" stroke="#30445f"/>
      <rect x="791" y="101" width="2" height="3" fill="#facc15"/><rect x="795" y="101" width="2" height="3" fill="#475569"/><rect x="791" y="113" width="2" height="3" fill="#facc15"/><rect x="795" y="113" width="2" height="3" fill="#facc15"/><rect x="791" y="125" width="2" height="3" fill="#475569"/><rect x="795" y="125" width="2" height="3" fill="#475569"/><rect x="791" y="137" width="2" height="3" fill="#475569"/><rect x="795" y="137" width="2" height="3" fill="#475569"/><rect x="791" y="149" width="2" height="3" fill="#475569"/><rect x="795" y="149" width="2" height="3" fill="#475569"/><rect x="791" y="161" width="2" height="3" fill="#475569"/><rect x="795" y="161" width="2" height="3" fill="#475569"/>
    </g><g>
      <rect x="804" y="147" width="12" height="25" fill="#243447" stroke="#30445f"/>
      <rect x="807" y="155" width="2" height="3" fill="#facc15"/><rect x="811" y="155" width="2" height="3" fill="#475569"/>
    </g><g>
      <rect x="820" y="93" width="12" height="79" fill="#1b2838" stroke="#30445f"/>
      <rect x="823" y="101" width="2" height="3" fill="#facc15"/><rect x="827" y="101" width="2" height="3" fill="#475569"/><rect x="823" y="113" width="2" height="3" fill="#facc15"/><rect x="827" y="113" width="2" height="3" fill="#facc15"/><rect x="823" y="125" width="2" height="3" fill="#475569"/><rect x="827" y="125" width="2" height="3" fill="#475569"/><rect x="823" y="137" width="2" height="3" fill="#475569"/><rect x="827" y="137" width="2" height="3" fill="#475569"/><rect x="823" y="149" width="2" height="3" fill="#475569"/><rect x="827" y="149" width="2" height="3" fill="#475569"/><rect x="823" y="161" width="2" height="3" fill="#475569"/><rect x="827" y="161" width="2" height="3" fill="#475569"/>
    </g><g>
      <rect x="836" y="102" width="12" height="70" fill="#243447" stroke="#30445f"/>
      <rect x="839" y="110" width="2" height="3" fill="#facc15"/><rect x="843" y="110" width="2" height="3" fill="#475569"/><rect x="839" y="122" width="2" height="3" fill="#475569"/><rect x="843" y="122" width="2" height="3" fill="#475569"/><rect x="839" y="134" width="2" height="3" fill="#475569"/><rect x="843" y="134" width="2" height="3" fill="#475569"/><rect x="839" y="146" width="2" height="3" fill="#475569"/><rect x="843" y="146" width="2" height="3" fill="#475569"/><rect x="839" y="158" width="2" height="3" fill="#475569"/><rect x="843" y="158" width="2" height="3" fill="#475569"/>
    </g><g>
      <rect x="852" y="99" width="12" height="73" fill="#1b2838" stroke="#30445f"/>
      <rect x="855" y="107" width="2" height="3" fill="#facc15"/><rect x="859" y="107" width="2" height="3" fill="#475569"/><rect x="855" y="119" width="2" height="3" fill="#475569"/><rect x="859" y="119" width="2" height="3" fill="#475569"/><rect x="855" y="131" width="2" height="3" fill="#475569"/><rect x="859" y="131" width="2" height="3" fill="#475569"/><rect x="855" y="143" width="2" height="3" fill="#475569"/><rect x="859" y="143" width="2" height="3" fill="#475569"/><rect x="855" y="155" width="2" height="3" fill="#475569"/><rect x="859" y="155" width="2" height="3" fill="#475569"/>
    </g>
    <rect x="0" y="172" width="860" height="28" fill="#020617"/>
  
  </svg>